#!OML:ASF E:\Steps\Project 1\Capture day 1\Session 2\Subject.ASF
:FULLY-SPECIFIED
:DEGREES
1
root 9.65722 11.8421 4.34238 19.0347 -1.13351 -0.0700076
lowerback -0.522022 0.570464 -2.00735
upperback 2.08576 0.827184 -1.47227
thorax 2.42574 0.3888 -0.364244
lowerneck -10.0152 -0.73182 6.11229
upperneck -14.8351 -1.258 1.77214
head -3.13109 -0.992216 -0.461787
rclavicle 3.77691e-015 9.54166e-015
rhumerus 63.5888 -2.15772 -57.3552
rradius 18.4348
rwrist 29.9032
rhand -11.5284 -36.6158
rfingers 7.12502
rthumb 14.5115 -66.0883
lclavicle 3.77691e-015 9.54166e-015
lhumerus 0 0 0
lradius 0
lwrist 0
lhand 0 0
lfingers 0
lthumb 0 0
rfemur -65.9942 -6.44275 13.0378
rtibia 0
rfoot 0 0
rtoes 0
lfemur -69.0764 3.90327 -10.1146
ltibia 0
lfoot 0 0
ltoes 0
2
root 9.65695 11.8398 4.34486 18.9737 -1.12266 -0.0937516
lowerback -0.536992 0.571381 -2.01119
upperback 2.1603 0.830579 -1.46351
thorax 2.51073 0.389437 -0.352561
lowerneck -8.87998 -0.992405 6.81618
upperneck -16.2114 -1.6082 1.01453
head -3.85586 -1.22933 -0.823885
rclavicle -5.56597e-015 1.86858e-014
rhumerus 63.6259 -2.15333 -57.1721
rradius 18.5501
rwrist 29.6734
rhand -11.511 -36.9611
rfingers 7.12502
rthumb 14.5282 -66.4324
lclavicle -5.56597e-015 1.86858e-014
lhumerus 0 0 0
lradius 0
lwrist 0
lhand 0 0
lfingers 0
lthumb 0 0
rfemur -65.9195 -6.45086 13.0753
rtibia 0
rfoot 0 0
rtoes 0
lfemur -69.0167 3.87658 -10.073
ltibia 0
lfoot 0 0
ltoes 0
3
root 9.65815 11.8373 4.34717 18.9254 -1.08751 -0.132935
lowerback -0.53559 0.565516 -1.97996
upperback 2.15321 0.821218 -1.42852
thorax 2.50255 0.385103 -0.334404
lowerneck -9.36382 -0.843825 6.74586
upperneck -15.8538 -1.44207 1.09554
head -3.63191 -1.13267 -0.788346
rclavicle -3.97569e-016 -2.0276e-014
rhumerus 63.5533 -2.04533 -56.8769
rradius 18.6794
rwrist 29.4555
rhand -11.2168 -37.3153
rfingers 7.12502
rthumb 14.8116 -66.7659
lclavicle -3.97569e-016 -2.0276e-014
lhumerus 0 0 0
lradius 0
lwrist 0
lhand 0 0
lfingers 0
lthumb 0 0
rfemur -65.8402 -6.47761 13.1161
rtibia 0
rfoot 0 0
rtoes 0
lfemur -68.9822 3.84414 -10.02
ltibia 0
lfoot 0 0
ltoes 0
4
root 9.66033 11.8364 4.34794 18.9 -1.07943 -0.2078
lowerback -0.502498 0.564221 -1.89732
upperback 2.11331 0.815285 -1.39379
thorax 2.44337 0.383973 -0.345664
lowerneck -10.1133 -0.999743 6.73812
upperneck -14.7622 -1.75419 0.990604
head -3.12247 -1.25252 -0.827306
rclavicle 1.39149e-015 1.74931e-014
rhumerus 63.5395 -2.04997 -57.0723
rradius 18.6523
rwrist 29.7723
rhand -11.2182 -37.2217
rfingers 7.12502
rthumb 14.8102 -66.6725
lclavicle 1.39149e-015 1.74931e-014
lhumerus 0 0 0
lradius 0
lwrist 0
lhand 0 0
lfingers 0
lthumb 0 0
rfemur -65.7991 -6.45565 13.183
rtibia 0
rfoot 0 0
rtoes 0
lfemur -68.949 3.87598 -9.95517
ltibia 0
lfoot 0 0
ltoes 0
5
root 9.66036 11.8346 4.3507 18.8437 -1.13662 -0.195117
lowerback -0.481965 0.59489 -1.91442
upperback 2.128 0.857041 -1.43587
thorax 2.44708 0.40483 -0.378363
lowerneck -9.91679 -0.731763 6.5603
upperneck -15.145 -1.31255 1.37597
head -3.27071 -1.0426 -0.667203
rclavicle -1.78906e-015 -1.15295e-014
rhumerus 63.5491 -2.18144 -57.3846
rradius 18.5852
rwrist 30.0985
rhand -11.5471 -36.8588
rfingers 7.12502
rthumb 14.4934 -66.3326
lclavicle -1.78906e-015 -1.15295e-014
lhumerus 0 0 0
lradius 0
lwrist 0
lhand 0 0
lfingers 0
lthumb 0 0
rfemur -65.748 -6.43104 13.1601
rtibia 0
rfoot 0 0
rtoes 0
lfemur -68.861 3.91302 -9.99266
ltibia 0
lfoot 0 0
ltoes 0
6
root 9.66083 11.8305 4.35447 18.7859 -1.20061 -0.0896994
lowerback -0.513993 0.614617 -2.02314
upperback 2.17972 0.888955 -1.50178
thorax 2.51777 0.418597 -0.383772
lowerneck -10.3101 -0.956271 6.95064
upperneck -14.5781 -1.73372 0.970403
head -3.02808 -1.24667 -0.871747
rclavicle 1.19271e-015 -1.11319e-014
rhumerus 63.5639 -2.23248 -57.3386
rradius 18.6305
rwrist 30.0442
rhand -11.6129 -36.7745
rfingers 7.12502
rthumb 14.43 -66.2528
lclavicle 1.19271e-015 -1.11319e-014
lhumerus 0 0 0
lradius 0
lwrist 0
lhand 0 0
lfingers 0
lthumb 0 0
rfemur -65.7089 -6.4485 13.0243
rtibia 0
rfoot 0 0
rtoes 0
lfemur -68.7949 3.88632 -10.1468
ltibia 0
lfoot 0 0
ltoes 0
